HIERARCHY
ROOT Hips
{
	OFFSET 0.000000 0.000000 0.000000
	CHANNELS 6 Xposition Yposition Zposition Zrotation Yrotation Xrotation 
	JOINT LHipJoint
	{
		OFFSET 0.000000 0.000000 0.000000
		CHANNELS 3 Zrotation Yrotation Xrotation
		JOINT LeftUpLeg
		{
			OFFSET 1.363060 -1.794630 0.839290
			CHANNELS 3 Zrotation Yrotation Xrotation
			JOINT LeftLeg
			{
				OFFSET 2.448110 -6.726130 0.000000
				CHANNELS 3 Zrotation Yrotation Xrotation
				JOINT LeftFoot
				{
					OFFSET 2.562200 -7.039590 0.000000
					CHANNELS 3 Zrotation Yrotation Xrotation
					JOINT LeftToeBase
					{
						OFFSET 0.157640 -0.433110 2.322550
						CHANNELS 3 Zrotation Yrotation Xrotation
						End Site
						{
							OFFSET 0.000000 0.000000 0.000000
						}
					}
				}
			}
		}
	}
	JOINT RHipJoint
	{
		OFFSET 0.000000 0.000000 0.000000
		CHANNELS 3 Zrotation Yrotation Xrotation
		JOINT RightUpLeg
		{
			OFFSET -1.305520 -1.794630 0.839290
			CHANNELS 3 Zrotation Yrotation Xrotation
			JOINT RightLeg
			{
				OFFSET -2.542530 -6.985550 0.000000
				CHANNELS 3 Zrotation Yrotation Xrotation
				JOINT RightFoot
				{
					OFFSET -2.568260 -7.056230 0.000000
					CHANNELS 3 Zrotation Yrotation Xrotation
					JOINT RightToeBase
					{
						OFFSET -0.164730 -0.452590 2.363150
						CHANNELS 3 Zrotation Yrotation Xrotation
						End Site
						{
							OFFSET 0.000000 0.000000 0.000000
						}
					}
				}
			}
		}
	}
}
MOTION
Frames: 16
Frame Time: 0.008333
-9.738252 16.804106 -0.953969 14.501156 80.383595 24.394818 -9.024442 0.563762 2.041435 -17.654052 1.060443 -36.604817 -2.343009 0.351519 24.972305 1.872957 9.452442 -7.669162 0.256100 -0.000000 -14.224300 11.384042 -4.690120 -0.928739 0.992439 -11.290308 -1.532399 0.626132 -3.188102 38.449693 0.521456 21.176357 19.938456 9.364600 0.000000 -79.774400
-9.568328 16.749641 -0.938120 16.095647 80.075825 25.686421 -8.952625 0.614155 1.837443 -18.254076 1.457229 -36.932396 -2.261238 0.549839 27.446258 1.940900 9.701351 -8.380016 0.102400 -0.000000 -12.418400 11.660338 -4.619074 -1.039524 0.000469 -11.953341 -3.077382 0.348215 -3.393108 42.221387 0.322797 20.387670 21.152173 9.504201 -0.000000 -78.416400
-9.403844 16.692009 -0.925160 17.504850 79.750971 26.766359 -8.887526 0.662555 1.605799 -18.852910 1.934077 -37.236004 -2.185533 0.746027 29.925960 1.995875 9.851572 -9.222745 -0.088300 0.000000 -10.870900 11.913867 -4.509897 -1.170125 -0.915217 -12.536743 -4.655210 0.063357 -3.603859 46.106311 0.112300 18.830687 22.076358 9.160001 -0.000000 -76.844100
-9.244412 16.632000 -0.915117 18.797451 79.422397 27.704633 -8.825433 0.709454 1.355032 -19.444733 2.444165 -37.457989 -2.118048 0.932282 32.333483 2.044062 9.938911 -10.196075 -0.311800 0.000001 -9.606800 12.149114 -4.363644 -1.322587 -1.764511 -13.043703 -6.250000 -0.228559 -3.823711 50.062558 -0.114049 16.506580 22.631060 8.303300 0.000000 -75.070900
-9.089481 16.570730 -0.908393 19.954387 79.100528 28.486015 -8.769631 0.754834 1.091809 -20.007959 2.961179 -37.561150 -2.060634 1.104312 34.610905 2.089657 9.984918 -11.298271 -0.565500 -0.000001 -8.630100 12.362664 -4.183294 -1.494985 -2.531833 -13.462173 -7.840444 -0.527014 -4.053020 54.031600 -0.360889 13.475554 22.741733 6.971100 0.000000 -73.070500
-8.938210 16.509476 -0.904949 21.009358 78.792546 29.152599 -8.717648 0.799972 0.824370 -20.539029 3.454974 -37.519206 -2.015374 1.258170 36.705605 2.137757 10.016636 -12.515621 -0.845001 -0.000000 -7.940000 12.557930 -3.973519 -1.682285 -3.221868 -13.790337 -9.420741 -0.830291 -4.291819 57.956899 -0.631583 9.880904 22.347797 5.277500 0.000001 -70.719500
-8.789667 16.449541 -0.904412 22.006366 78.501431 29.759378 -8.664735 0.846718 0.560517 -21.043602 3.900104 -37.319286 -1.983545 1.391254 38.576696 2.192950 10.059264 -13.822835 -1.146000 -0.000001 -7.524300 12.740439 -3.740353 -1.876775 -3.845853 -14.027554 -10.992604 -1.135929 -4.539616 61.780084 -0.925099 5.933069 21.416836 3.397300 -0.000000 -67.886300
-8.642888 16.392274 -0.906678 22.922990 78.226201 30.298548 -8.612457 0.895759 0.306543 -21.515157 4.288500 -36.973704 -1.964998 1.503974 40.207591 2.257285 10.124951 -15.189995 -1.464300 -0.000000 -7.359600 12.908765 -3.491713 -2.067943 -4.395011 -14.162948 -12.561388 -1.441677 -4.792964 65.441686 -1.234490 1.877873 19.959256 1.531600 0.000000 -64.493000
-8.496890 16.339058 -0.911168 23.782554 77.964089 30.807511 -8.557108 0.948447 0.068216 -21.963073 4.610514 -36.497020 -1.958760 1.596353 41.584807 2.332584 10.228272 -16.575304 -1.794499 -0.000000 -7.409300 13.066660 -3.235307 -2.244737 -4.878050 -14.193663 -14.138286 -1.744424 -5.048179 68.886961 -1.546389 -2.022585 18.030194 -0.123800 0.000000 -60.531200
-8.350858 16.291089 -0.917518 24.558208 77.711539 31.274775 -8.500757 1.004707 -0.150410 -22.383795 4.870761 -35.921645 -1.962853 1.670369 42.714711 2.417768 10.370417 -17.937113 -2.130300 -0.000000 -7.621700 13.211714 -2.978852 -2.395703 -5.286202 -14.110961 -15.736074 -2.040489 -5.298543 72.068814 -1.842615 -5.537499 15.723248 -1.422000 0.000000 -56.072800
-8.204131 16.249472 -0.925153 25.245198 77.467035 31.706731 -8.443673 1.064498 -0.346544 -22.778890 5.075619 -35.276624 -1.974940 1.727544 43.606434 2.510593 10.549452 -19.231929 -2.464100 0.000000 -7.933800 13.343125 -2.728443 -2.511368 -5.617678 -13.913410 -17.365659 -2.324263 -5.537011 74.948644 -2.102524 -8.483915 13.154949 -2.283300 0.000000 -51.249900
-8.056140 16.215137 -0.933517 25.836788 77.231452 32.105311 -8.387255 1.127395 -0.519140 -23.147202 5.235695 -34.590373 -1.992825 1.769665 44.274950 2.607237 10.756367 -20.421580 -2.786900 0.000000 -8.279400 13.458750 -2.488188 -2.585691 -5.869339 -13.605059 -19.032729 -2.588304 -5.756370 77.497610 -2.306160 -10.741223 10.445160 -2.701000 -0.000000 -46.218900
-7.906534 16.188870 -0.942161 26.327661 77.009397 32.467409 -8.333938 1.192865 -0.668025 -23.483609 5.364649 -33.882115 -2.014679 1.798028 44.734659 2.702707 10.976595 -21.474739 -3.088500 0.000001 -8.601000 13.555631 -2.261199 -2.615798 -6.037220 -13.196072 -20.734431 -2.823423 -5.950180 79.693373 -2.437074 -12.249628 7.703389 -2.729500 0.000000 -41.129800
-7.755156 16.171228 -0.950633 26.722518 76.807527 32.794956 -8.286026 1.260419 -0.794990 -23.782630 5.476686 -33.161401 -2.039622 1.813814 44.998069 2.791787 11.192963 -22.370381 -3.358900 -0.000000 -8.859100 13.631006 -2.048466 -2.603565 -6.120726 -12.703932 -22.459176 -3.019753 -6.113724 81.519838 -2.484304 -13.002050 5.019954 -2.463300 0.000000 -36.111200
-7.601890 16.162578 -0.958674 27.030127 76.635451 33.087861 -8.246101 1.329817 -0.902142 -24.036655 5.585016 -32.424013 -2.067585 1.817579 45.071941 2.869481 11.386962 -23.098060 -3.589000 0.000000 -9.037199 13.682159 -1.850567 -2.553535 -6.120206 -12.149906 -24.185301 -3.167659 -6.243837 82.963579 -2.443953 -13.037431 2.468551 -2.015200 0.000000 -31.281401
-7.446757 16.163088 -0.966144 27.263445 76.502112 33.348108 -8.216242 1.400722 -0.993485 -24.238694 5.700782 -31.656688 -2.099577 1.809792 44.957785 2.931860 11.541832 -23.658732 -3.772500 0.000000 -9.139600 13.706800 -1.665955 -2.473743 -6.038109 -11.557031 -25.885638 -3.259271 -6.338790 84.014668 -2.320166 -12.434906 0.111479 -1.496600 -0.000000 -26.777500
